<?xml version="1.0" encoding="utf-8"?>
<!-- Generator: Adobe Illustrator 23.0.3, SVG Export Plug-In . SVG Version: 6.00 Build 0)  -->
<svg version="1.1" id="Calque_1" xmlns="http://www.w3.org/2000/svg" xmlns:xlink="http://www.w3.org/1999/xlink" x="0px" y="0px"
	 viewBox="0 0 200 60" style="enable-background:new 0 0 200 60;" xml:space="preserve">
<style type="text/css">
	.st0{fill:#FFFFFF;stroke:#000000;stroke-width:0.25;stroke-miterlimit:10;}
	.st1{fill:#F7931E;stroke:#000000;stroke-width:0.25;stroke-miterlimit:10;}
	.st2{opacity:0.67;fill:#8C6239;stroke:#000000;stroke-width:0.25;stroke-miterlimit:10;enable-background:new    ;}
	.st3{fill:#FFFFFF;}
	.st4{font-family:'ArialMT';}
	.st5{font-size:24.8377px;}
</style>
<g>
	<path class="st0" d="M24.9,12.6c0,0-1.8,1.7-7,1.7c0,0-5.2-1.7-5.2,5c0,0,0,1.7-3.5,3.4c0,0,0,13.4,14,10c0,0,7,1.7,7,8.4
		c0,0,1.8,5,0,8.4c0,0,1.8,5,3.5,5c0,0,1.8-6.7,10.5-15.1c0,0,15.7-13.4,12.2-21.8c0,0-1.8-15.1-21-6.7c0,0,0,0-1.8,1.7
		c0,0-2.8,2.4-2.6,3.2c0.2,0.8,0,0,0,0"/>
	<path class="st1" d="M39,24.9c0,0,5.1-1.4,8.5,2.8c0,0,0,1.7-2.5,1.1c-0.7-0.2-1.5-0.5-2.6-1.1C42.4,27.7,39,26.3,39,24.9z"/>
	<path class="st2" d="M45.5,32.5c0,0-3.4,3.3-8.5-6.6c0,0,0-1.6-3.4-4.9c0,0-10.2-9.9-11.9-9.9c0,0-3.4-3.3-1.7-4.9s3.4,1.6,3.4,1.6
		s15.3,18.1,17,14.8c0,0,8.5,1.6,8.5,4.9S47.2,32.5,45.5,32.5z"/>
</g>
<text transform="matrix(0.728 0 0 1 68.4399 41.0404)" class="st3 st4 st5">Ouvre ton frigo</text>
</svg>
